<svg width="48" height="48" viewBox="0 0 48 48" fill="none" xmlns="http://www.w3.org/2000/svg">
<circle cx="24" cy="24" r="24" fill="#F7D247"/>
<path d="M31 19.5375C31 25.6625 24 31 24 31C24 31 17 25.6625 17 19.5375C17 15.6875 20.15 12.625 24 12.625C27.85 12.625 31 15.6875 31 19.5375Z" stroke="#1C120B" stroke-width="2" stroke-miterlimit="10" stroke-linecap="round" stroke-linejoin="round"/>
<path d="M24 21.375C24.9665 21.375 25.75 20.5915 25.75 19.625C25.75 18.6585 24.9665 17.875 24 17.875C23.0335 17.875 22.25 18.6585 22.25 19.625C22.25 20.5915 23.0335 21.375 24 21.375Z" stroke="#1C120B" stroke-width="2" stroke-miterlimit="10" stroke-linecap="round" stroke-linejoin="round"/>
<path d="M26.8 28.375H31.875L35.375 35.375H12.625L16.125 28.375H21.2" stroke="#1C120B" stroke-width="2" stroke-miterlimit="10" stroke-linecap="round" stroke-linejoin="round"/>
</svg>
