<svg width="48" height="48" viewBox="0 0 48 48" fill="none" xmlns="http://www.w3.org/2000/svg">
<circle cx="24" cy="24" r="24" fill="#F7D247"/>
<path d="M17.875 35.375H14.375C13.4125 35.375 12.625 34.5875 12.625 33.625V24.875C12.625 23.3875 13.7625 22.25 15.25 22.25C16.7375 22.25 17.875 23.3875 17.875 24.875V35.375Z" stroke="#1C120B" stroke-width="2" stroke-miterlimit="10" stroke-linecap="round" stroke-linejoin="round"/>
<path d="M33.625 35.375H30.125V24.875C30.125 23.3875 31.2625 22.25 32.75 22.25C34.2375 22.25 35.375 23.3875 35.375 24.875V33.625C35.375 34.5875 34.5875 35.375 33.625 35.375Z" stroke="#1C120B" stroke-width="2" stroke-miterlimit="10" stroke-linecap="round" stroke-linejoin="round"/>
<path d="M30.125 26.625H17.875V35.375H30.125V26.625Z" stroke="#1C120B" stroke-width="2" stroke-miterlimit="10" stroke-linecap="round" stroke-linejoin="round"/>
<path d="M15.25 22.25V16.825C15.25 14.9875 16.7375 13.5 18.575 13.5H29.3375C31.2625 13.5 32.75 14.9875 32.75 16.825V22.25" stroke="#1C120B" stroke-width="2" stroke-miterlimit="10" stroke-linecap="round" stroke-linejoin="round"/>
</svg>
