<svg width="48" height="48" viewBox="0 0 48 48" fill="none" xmlns="http://www.w3.org/2000/svg">
<circle cx="24" cy="24" r="24" fill="#F7D247"/>
<path d="M21.3519 22.9868C21.037 23.194 20.6799 23.4291 20.2864 23.7383C20.1683 23.8242 19.1183 24.5994 18.6674 25.3529C18.2058 26.1228 18.0566 27.3777 18.0502 27.431C18.0347 27.5656 18.0775 27.7006 18.1675 27.8017C18.2578 27.9027 18.3867 27.9607 18.5223 27.9607H23.3467C23.6094 27.9607 23.822 27.7481 23.822 27.4855C23.822 27.2228 23.6094 27.0102 23.3467 27.0102H19.0841C19.1645 26.6262 19.296 26.1522 19.4826 25.8411C19.7801 25.3437 20.5672 24.7094 20.859 24.4965C21.2354 24.2009 21.5747 23.9778 21.8741 23.7808C22.6849 23.2472 23.3255 22.8258 23.3255 21.728C23.3255 20.2981 22.163 19.1347 20.7338 19.1347C19.303 19.1347 18.1393 20.2981 18.1393 21.728C18.1393 21.9907 18.3519 22.2032 18.6145 22.2032C18.8772 22.2032 19.0898 21.9907 19.0898 21.728C19.0898 20.8222 19.8274 20.0852 20.7338 20.0852C21.6387 20.0852 22.375 20.8222 22.375 21.728C22.375 22.2885 22.1459 22.4643 21.3519 22.9868Z" fill="#1C120B" stroke="#1C120B"/>
<path d="M28.0731 28.0058C28.3358 28.0058 28.5484 27.7932 28.5484 27.5305V25.7955H29.5924C29.855 25.7955 30.0676 25.5829 30.0676 25.3203C30.0676 25.0576 29.855 24.845 29.5924 24.845H28.5484V19.655C28.5484 19.4443 28.4096 19.259 28.2075 19.1994C28.006 19.1395 27.7883 19.2203 27.6739 19.3971L24.0114 25.0624C23.9169 25.2085 23.91 25.3947 23.993 25.5477C24.0763 25.7005 24.2363 25.7958 24.4103 25.7958H27.5976V27.5308C27.5979 27.7932 27.8108 28.0058 28.0731 28.0058ZM25.2838 24.845L27.5979 21.2655V24.845H25.2838Z" fill="#1C120B" stroke="#1C120B"/>
<path d="M37.2757 21.6634C37.078 21.4914 36.7776 21.5116 36.6052 21.7097L35.6944 22.7558C35.1523 16.6122 29.9809 11.7776 23.6988 11.7776C17.0555 11.7776 11.6506 17.1812 11.6506 23.8229C11.6506 30.4653 17.0555 35.8695 23.6988 35.8695C27.9535 35.8695 31.81 33.6929 34.0142 30.0474C34.1501 29.8231 34.0779 29.5306 33.8532 29.3947C33.6286 29.2594 33.3362 29.331 33.2006 29.5557C31.17 32.9141 27.618 34.919 23.6988 34.919C17.5795 34.919 12.6011 29.9413 12.6011 23.8229C12.6011 17.7052 17.5795 12.7281 23.6988 12.7281C29.494 12.7281 34.2626 17.1951 34.7496 22.8661L33.5919 21.8608C33.3942 21.6887 33.0938 21.71 32.9214 21.908C32.7494 22.106 32.7706 22.4064 32.9687 22.5784L34.9682 24.3143C35.0582 24.3926 35.169 24.4306 35.2796 24.4306C35.4121 24.4306 35.5442 24.3755 35.6383 24.2674L37.3219 22.3335C37.4946 22.1358 37.4737 21.8358 37.2757 21.6634Z" fill="#1C120B" stroke="#1C120B"/>
</svg>
