<svg width="48" height="48" viewBox="0 0 48 48" fill="none" xmlns="http://www.w3.org/2000/svg">
<circle cx="24" cy="24" r="24" fill="#F7D247"/>
<path d="M32.8516 21.5388C32.8516 16.5982 28.832 12.5788 23.8916 12.5788C18.9513 12.5788 14.9316 16.5985 14.9316 21.5388C14.9316 26.4792 18.9513 30.4988 23.8916 30.4988C28.832 30.4988 32.8516 26.4792 32.8516 21.5388ZM15.8818 21.5388C15.8818 17.1225 19.475 13.5293 23.8913 13.5293C28.3076 13.5293 31.9008 17.1225 31.9008 21.5388C31.9008 25.9551 28.3076 29.5483 23.8913 29.5483C19.475 29.5483 15.8818 25.9551 15.8818 21.5388Z" fill="#1C120B" stroke="#1C120B"/>
<path d="M37.625 21.7441H36.4499C36.2398 14.9969 30.6889 9.57178 23.8913 9.57178C17.094 9.57178 11.5441 14.9969 11.3343 21.7441H10.0854C9.8227 21.7441 9.61011 21.9567 9.61011 22.2194V27.3295C9.61011 27.5919 9.8227 27.8048 10.0854 27.8048H13.4926C13.7552 27.8048 13.9678 27.5919 13.9678 27.3295V22.2194C13.9678 21.9567 13.7552 21.7441 13.4926 21.7441H12.2848C12.4942 15.5209 17.6184 10.5223 23.8913 10.5223C30.1652 10.5223 35.2896 15.5212 35.4991 21.7441H34.2178C33.9555 21.7441 33.7426 21.9567 33.7426 22.2194V27.3295C33.7426 27.5919 33.9555 27.8048 34.2178 27.8048H35.5441C35.3232 32.0687 31.8704 35.4908 27.5944 35.6657V34.3623C27.5944 34.0999 27.3815 33.887 27.1192 33.887H22.0096C21.747 33.887 21.5344 34.0999 21.5344 34.3623V37.7695C21.5344 38.0318 21.747 38.2447 22.0096 38.2447H27.1192C27.3815 38.2447 27.5944 38.0318 27.5944 37.7695V36.6162C32.3944 36.4397 36.2725 32.5928 36.4949 27.8048H37.625C37.8873 27.8048 38.1003 27.5919 38.1003 27.3295V22.2194C38.1003 21.957 37.8873 21.7441 37.625 21.7441ZM13.0173 26.8543H10.5606V22.6946H13.0173V26.8543ZM26.6439 37.2942H22.4849V34.8375H26.6439V37.2942ZM37.1498 26.8543H34.693V22.6946H37.1498V26.8543Z" fill="#1C120B" stroke="#1C120B"/>
</svg>
