<svg width="48" height="48" viewBox="0 0 48 48" fill="none" xmlns="http://www.w3.org/2000/svg">
<circle cx="24" cy="24" r="24" fill="#F7D247"/>
<path d="M15.25 24C15.25 19.1675 19.1675 15.25 24 15.25M29.6249 18.375L23.9999 24M36.5 24C36.5 30.9035 30.9035 36.5 24 36.5C17.0964 36.5 11.5 30.9035 11.5 24C11.5 17.0964 17.0964 11.5 24 11.5C30.9035 11.5 36.5 17.0964 36.5 24ZM25.25 24C25.25 24.6904 24.6904 25.25 24 25.25C23.3096 25.25 22.75 24.6904 22.75 24C22.75 23.3096 23.3096 22.75 24 22.75C24.6904 22.75 25.25 23.3096 25.25 24Z" stroke="#1C120B" stroke-width="2" stroke-linecap="round" stroke-linejoin="round"/>
</svg>
