<svg width="48" height="48" viewBox="0 0 48 48" fill="none" xmlns="http://www.w3.org/2000/svg">
<circle cx="24" cy="24" r="24" fill="#F7D247"/>
<path d="M35.3098 17.0458L24.2265 12.379C24.1548 12.3488 24.0778 12.3333 24 12.3333C23.9223 12.3333 23.8453 12.3488 23.7736 12.379L12.6903 17.0458C12.5845 17.0904 12.4942 17.1651 12.4307 17.2608C12.3673 17.3564 12.3334 17.4686 12.3334 17.5834V30.4167C12.3334 30.5315 12.3673 30.6437 12.4307 30.7394C12.4942 30.835 12.5845 30.9098 12.6903 30.9544L23.7736 35.6212C23.8453 35.6512 23.9222 35.6667 24 35.6667C24.0778 35.6667 24.1547 35.6512 24.2264 35.6212L35.3098 30.9545C35.4156 30.9099 35.5058 30.8351 35.5693 30.7394C35.6328 30.6438 35.6666 30.5316 35.6667 30.4168V17.5834C35.6667 17.4686 35.6328 17.3564 35.5693 17.2608C35.5058 17.1651 35.4156 17.0904 35.3098 17.0458ZM24 21.6172L19.6308 19.7775L29.1523 15.7684C29.1698 15.76 29.1869 15.7507 29.2034 15.7405L33.5801 17.5835L24 21.6172ZM24 13.5496L27.7078 15.1108L18.2319 19.1005C18.2002 19.1143 18.1697 19.1309 18.141 19.1502L14.42 17.5834L24 13.5496ZM13.5 18.462L23.4167 22.6374V34.2047L13.5 30.0294V18.462ZM24.5834 34.2047V22.6374L34.5 18.462V30.0294L24.5834 34.2047Z" fill="#1C120B" stroke="#1C120B" stroke-width="0.7"/>
</svg>
