<svg width="48" height="48" viewBox="0 0 48 48" fill="none" xmlns="http://www.w3.org/2000/svg">
<circle cx="24" cy="24" r="24" fill="#F7D247"/>
<path d="M29.4803 34.5319L24.5625 31.4025L24.5625 26.3089C26.0879 26.1233 27.4924 25.3855 28.5108 24.2349C29.5293 23.0844 30.0912 21.6007 30.0903 20.0641C30.0903 19.7031 30.07 19.3309 30.04 18.9556C30.0479 18.8696 30.0413 18.783 30.0205 18.6992C29.7143 15.4945 28.4994 12.072 28.4406 11.9079C28.3873 11.7585 28.2891 11.6293 28.1593 11.538C28.0296 11.4467 27.8748 11.3979 27.7162 11.3981L19.87 11.3984C19.7116 11.3985 19.5571 11.4475 19.4275 11.5386C19.298 11.6298 19.1997 11.7588 19.1462 11.9079C19.0874 12.0717 17.8784 15.478 17.569 18.6757C17.5441 18.7678 17.5366 18.8636 17.5467 18.9584C17.5169 19.3326 17.4967 19.7038 17.4968 20.0639C17.487 21.6031 18.0457 23.0917 19.0657 24.2445C20.0857 25.3972 21.4952 26.1329 23.0242 26.3106L23.0241 31.4023L18.107 34.5315C17.9665 34.6209 17.8588 34.7534 17.8001 34.9092C17.7414 35.065 17.7349 35.2357 17.7815 35.3955C17.828 35.5554 17.9252 35.6958 18.0584 35.7957C18.1916 35.8956 18.3536 35.9495 18.5201 35.9495L29.0678 35.9497C29.2342 35.9497 29.3962 35.8957 29.5293 35.7958C29.6625 35.6959 29.7596 35.5554 29.8061 35.3956C29.8526 35.2358 29.846 35.0652 29.7873 34.9094C29.7285 34.7537 29.6208 34.6212 29.4803 34.5319L29.4803 34.5319ZM20.423 12.9365L27.1641 12.9363C27.4349 13.7701 27.9631 15.518 28.284 17.359C27.7285 17.1341 27.1337 17.0225 26.5345 17.0307C24.8967 17.0304 24.0208 17.7207 23.3158 18.2759C22.6673 18.7868 22.1544 19.1903 21.0508 19.1905C20.1464 19.189 19.6399 18.9172 19.1301 18.5392C19.3862 16.3047 20.0944 13.9482 20.423 12.9365ZM20.4288 23.429C19.5888 22.5914 19.095 21.4681 19.0459 20.2829C19.2858 20.4039 19.5372 20.5008 19.7963 20.5722C20.2057 20.6793 20.6276 20.7318 21.0508 20.7285C22.6873 20.7282 23.5635 20.0388 24.2684 19.4836C24.9175 18.9725 25.43 18.5687 26.5346 18.5687C27.4758 18.5684 27.9881 18.8636 28.5218 19.268C28.5398 19.5381 28.552 19.8051 28.5519 20.064C28.552 21.0051 28.2729 21.9251 27.7501 22.7077C27.2272 23.4902 26.4841 24.1002 25.6146 24.4603C24.7451 24.8205 23.7883 24.9148 22.8652 24.7312C21.9422 24.5476 21.0943 24.0944 20.4288 23.429L20.4288 23.429ZM21.1605 34.4115L23.7933 32.7359L26.4264 34.4115L21.1605 34.4115Z" fill="#1C120B"/>
</svg>
