<svg width="48" height="48" viewBox="0 0 48 48" fill="none" xmlns="http://www.w3.org/2000/svg">
<circle cx="24" cy="24" r="24" fill="#F7D247"/>
<path d="M35.26 15L24.26 12C24.0903 11.95 23.9097 11.95 23.74 12L12.74 15C12.5218 15.0586 12.33 15.1894 12.1956 15.371C12.0612 15.5525 11.9923 15.7743 12 16V31C12.0001 31.2055 12.0635 31.406 12.1816 31.5742C12.2997 31.7424 12.4667 31.8702 12.66 31.94L23.66 35.94C23.8658 36.0204 24.0942 36.0204 24.3 35.94L35.3 31.94C35.5007 31.8769 35.6765 31.7521 35.8021 31.5833C35.9278 31.4146 35.9971 31.2104 36 31V16C36.0077 15.7743 35.9388 15.5525 35.8044 15.371C35.6701 15.1894 35.4782 15.0586 35.26 15ZM24 14L33 16.5L24 19L15 16.5L24 14ZM14 20V18.31L23 20.76V33.57L14 30.3V20ZM34 30.3L25 33.57V20.76L34 18.31V30.31V30.3Z" fill="#1C120B"/>
</svg>
