<svg width="24" height="24" viewBox="0 0 24 24" fill="none" xmlns="http://www.w3.org/2000/svg">
<path fill-rule="evenodd" clip-rule="evenodd" d="M18.6561 3.79335C22.3648 7.40701 22.3801 13.211 18.7028 16.7941L12.0276 23.2982L5.35233 16.7941C1.68269 13.2185 1.68269 7.41449 5.35233 3.83889L5.39907 3.79335C9.07693 0.20976 14.963 0.194941 18.6561 3.79335ZM12.0029 21.302L17.6795 15.7708C20.7875 12.7426 20.7745 7.84742 17.6349 4.78824C14.4973 1.73108 9.4955 1.74368 6.37085 4.78824L6.32622 4.83173C3.22472 7.85374 3.22472 12.7488 6.32622 15.7708L12.0029 21.302ZM14.1667 8.16379C15.3567 9.32323 15.3567 11.2092 14.1667 12.3686C12.9848 13.5202 11.0744 13.5202 9.89255 12.3686C8.70261 11.2092 8.70261 9.32323 9.89255 8.16379C11.0744 7.0122 12.9848 7.0122 14.1667 8.16379ZM10.7737 9.07832C11.4511 8.4183 12.5546 8.4183 13.232 9.07832C13.9021 9.73125 13.9021 10.7844 13.232 11.4373C12.5546 12.0973 11.4511 12.0973 10.7737 11.4373C10.1036 10.7844 10.1036 9.73125 10.7737 9.07832Z" fill="#E94A44"/>
</svg>
