<svg width="24" height="24" viewBox="0 0 24 24" fill="none" xmlns="http://www.w3.org/2000/svg">
<g clip-path="url(#clip0_851_32601)">
<path d="M19.5 2H4.5C3.8372 2.00079 3.20178 2.26444 2.73311 2.73311C2.26444 3.20178 2.00079 3.8372 2 4.5V19.5C2.00079 20.1628 2.26444 20.7982 2.73311 21.2669C3.20178 21.7355 3.8372 21.9992 4.5 22H19.5C20.1628 21.9992 20.7982 21.7355 21.2669 21.2669C21.7355 20.7982 21.9992 20.1628 22 19.5V4.5C21.9992 3.8372 21.7355 3.20178 21.2669 2.73311C20.7982 2.26444 20.1628 2.00079 19.5 2ZM21 4.5V11.5H12.5V3H19.5C19.8978 3 20.2794 3.15804 20.5606 3.43934C20.8419 3.72065 21 4.10217 21 4.5ZM4.5 3H11.5V11.5H3V4.5C3 4.10217 3.15804 3.72065 3.43934 3.43934C3.72065 3.15804 4.10217 3 4.5 3ZM3 19.5V12.5H11.5V21H4.5C4.10217 21 3.72065 20.8419 3.43934 20.5606C3.15804 20.2794 3 19.8978 3 19.5ZM19.5 21H12.5V12.5H21V19.5C21 19.8978 20.8419 20.2794 20.5606 20.5606C20.2794 20.8419 19.8978 21 19.5 21Z" fill="#1C120B" stroke="#1C120B" stroke-width="0.3"/>
<path d="M5.5 7.75H6.75V9C6.75 9.1326 6.8027 9.2598 6.89645 9.35355C6.9902 9.4473 7.1174 9.5 7.25 9.5C7.3826 9.5 7.5098 9.4473 7.60355 9.35355C7.6973 9.2598 7.75 9.1326 7.75 9V7.75H9C9.1326 7.75 9.2598 7.6973 9.35355 7.60355C9.4473 7.5098 9.5 7.3826 9.5 7.25C9.5 7.1174 9.4473 6.9902 9.35355 6.89645C9.2598 6.8027 9.1326 6.75 9 6.75H7.75V5.5C7.75 5.3674 7.6973 5.2402 7.60355 5.14645C7.5098 5.0527 7.3826 5 7.25 5C7.1174 5 6.9902 5.0527 6.89645 5.14645C6.8027 5.2402 6.75 5.3674 6.75 5.5V6.75H5.5C5.3674 6.75 5.2402 6.8027 5.14645 6.89645C5.0527 6.9902 5 7.1174 5 7.25C5 7.3826 5.0527 7.5098 5.14645 7.60355C5.2402 7.6973 5.3674 7.75 5.5 7.75Z" fill="#1C120B" stroke="#1C120B" stroke-width="0.3"/>
<path d="M7.95653 17L8.84053 16.116C8.88828 16.0699 8.92638 16.0147 8.95258 15.9537C8.97878 15.8927 8.99258 15.8271 8.99313 15.7607C8.99373 15.6943 8.98108 15.6285 8.95593 15.567C8.93078 15.5056 8.89368 15.4498 8.84673 15.4028C8.79978 15.3559 8.74393 15.3187 8.68253 15.2936C8.62108 15.2685 8.55523 15.2558 8.48883 15.2564C8.42243 15.257 8.35683 15.2708 8.29583 15.297C8.23483 15.3232 8.17963 15.3613 8.13353 15.409L7.24953 16.293L6.36553 15.409C6.31943 15.3613 6.26423 15.3232 6.20323 15.297C6.14223 15.2708 6.07663 15.257 6.01023 15.2564C5.94383 15.2558 5.87798 15.2685 5.81653 15.2936C5.75508 15.3187 5.69928 15.3559 5.65233 15.4028C5.60538 15.4498 5.56828 15.5056 5.54313 15.567C5.51798 15.6285 5.50533 15.6943 5.50588 15.7607C5.50648 15.8271 5.52028 15.8927 5.54648 15.9537C5.57268 16.0147 5.61078 16.0699 5.65853 16.116L6.54253 17L5.65853 17.884C5.61078 17.9301 5.57268 17.9853 5.54648 18.0463C5.52028 18.1073 5.50648 18.1729 5.50588 18.2393C5.50533 18.3057 5.51798 18.3715 5.54313 18.433C5.56828 18.4944 5.60538 18.5503 5.65233 18.5972C5.69928 18.6442 5.75508 18.6813 5.81653 18.7064C5.87798 18.7316 5.94383 18.7442 6.01023 18.7436C6.07663 18.7431 6.14223 18.7293 6.20323 18.7031C6.26423 18.6769 6.31943 18.6388 6.36553 18.591L7.24953 17.707L8.13353 18.591C8.17963 18.6388 8.23483 18.6769 8.29583 18.7031C8.35683 18.7293 8.42243 18.7431 8.48883 18.7436C8.55523 18.7442 8.62108 18.7316 8.68253 18.7064C8.74393 18.6813 8.79978 18.6442 8.84673 18.5972C8.89368 18.5503 8.93078 18.4944 8.95593 18.433C8.98108 18.3715 8.99373 18.3057 8.99313 18.2393C8.99258 18.1729 8.97878 18.1073 8.95258 18.0463C8.92638 17.9853 8.88828 17.9301 8.84053 17.884L7.95653 17Z" fill="#1C120B" stroke="#1C120B" stroke-width="0.3"/>
<path d="M15 7.75H18.5C18.6326 7.75 18.7598 7.6973 18.8535 7.60355C18.9473 7.5098 19 7.3826 19 7.25C19 7.1174 18.9473 6.9902 18.8535 6.89645C18.7598 6.8027 18.6326 6.75 18.5 6.75H15C14.8674 6.75 14.7402 6.8027 14.6465 6.89645C14.5527 6.9902 14.5 7.1174 14.5 7.25C14.5 7.3826 14.5527 7.5098 14.6465 7.60355C14.7402 7.6973 14.8674 7.75 15 7.75Z" fill="#1C120B" stroke="#1C120B" stroke-width="0.3"/>
<path d="M18.5 15.5H15C14.8674 15.5 14.7402 15.5527 14.6465 15.6465C14.5527 15.7402 14.5 15.8674 14.5 16C14.5 16.1326 14.5527 16.2598 14.6465 16.3535C14.7402 16.4473 14.8674 16.5 15 16.5H18.5C18.6326 16.5 18.7598 16.4473 18.8535 16.3535C18.9473 16.2598 19 16.1326 19 16C19 15.8674 18.9473 15.7402 18.8535 15.6465C18.7598 15.5527 18.6326 15.5 18.5 15.5Z" fill="#1C120B" stroke="#1C120B" stroke-width="0.3"/>
<path d="M18.5 17.5H15C14.8674 17.5 14.7402 17.5527 14.6465 17.6465C14.5527 17.7402 14.5 17.8674 14.5 18C14.5 18.1326 14.5527 18.2598 14.6465 18.3535C14.7402 18.4473 14.8674 18.5 15 18.5H18.5C18.6326 18.5 18.7598 18.4473 18.8535 18.3535C18.9473 18.2598 19 18.1326 19 18C19 17.8674 18.9473 17.7402 18.8535 17.6465C18.7598 17.5527 18.6326 17.5 18.5 17.5Z" fill="#1C120B" stroke="#1C120B" stroke-width="0.3"/>
</g>
<defs>
<clipPath id="clip0_851_32601">
<rect width="24" height="24" fill="white"/>
</clipPath>
</defs>
</svg>
