<svg width="24" height="24" viewBox="0 0 24 24" fill="none" xmlns="http://www.w3.org/2000/svg">
<path d="M23.1884 11.4019L21.444 7.63355C21.3352 7.39883 21.1002 7.24855 20.8415 7.24855H15.3557V3.96361C15.3557 3.59701 15.0586 3.2998 14.6919 3.2998H1.4138C1.04712 3.2998 0.75 3.59701 0.75 3.96361V15.1351C0.75 15.5017 1.04712 15.7989 1.4138 15.7989H2.71406C2.6029 16.0423 2.5189 16.3004 2.46633 16.5699H1.4138C1.04712 16.5699 0.75 16.8671 0.75 17.2337C0.75 17.6003 1.04712 17.8975 1.4138 17.8975H2.46642C2.77708 19.4921 4.18399 20.6996 5.86827 20.6996C7.5523 20.6996 8.95912 19.492 9.26978 17.8975H14.81C15.1206 19.4921 16.5274 20.6996 18.2116 20.6996C19.8956 20.6996 21.3023 19.492 21.613 17.8975H22.5862C22.9529 17.8975 23.25 17.6003 23.25 17.2337V11.6808C23.2498 11.5844 23.2289 11.4893 23.1884 11.4019ZM14.8098 16.5698H9.26969C9.21721 16.3003 9.13312 16.0422 9.02196 15.7988H14.692C14.8679 15.7988 15.0275 15.7298 15.1463 15.618C14.9902 15.9129 14.8756 16.2326 14.8098 16.5698ZM2.07761 4.62741H14.0281V14.4713H7.95863C7.37705 14.03 6.6528 13.7676 5.86819 13.7676C5.08357 13.7676 4.35914 14.03 3.77756 14.4713H2.07761V4.62741ZM5.86819 19.3719C4.68892 19.3719 3.7295 18.4127 3.7295 17.2336C3.7295 16.0545 4.68892 15.0951 5.86819 15.0951C7.04728 15.0951 8.00652 16.0545 8.00652 17.2336C8.00652 18.4127 7.04728 19.3719 5.86819 19.3719ZM18.2115 19.3719C17.0323 19.3719 16.073 18.4127 16.073 17.2336C16.073 16.0545 17.0323 15.0951 18.2115 15.0951C19.3905 15.0951 20.3496 16.0545 20.3496 17.2336C20.3496 18.4127 19.3905 19.3719 18.2115 19.3719ZM21.9222 16.5698H21.6128C21.3021 14.9751 19.8956 13.7675 18.2115 13.7675C17.0135 13.7675 15.9558 14.3786 15.333 15.3053C15.3473 15.2508 15.3558 15.194 15.3558 15.1351V8.57615H20.4174L21.9222 11.8269V16.5698Z" fill="#1C120B"/>
<path d="M19.4316 9.18457H16.6404C16.2737 9.18457 15.9766 9.48178 15.9766 9.84837V11.6937C15.9766 12.0603 16.2737 12.3575 16.6404 12.3575H20.307C20.308 12.3575 20.3084 12.3575 20.3088 12.3575C20.6755 12.3575 20.9726 12.0603 20.9726 11.6937C20.9726 11.5749 20.9414 11.4634 20.8867 11.3669L20.0314 9.56391C19.9215 9.3322 19.688 9.18457 19.4316 9.18457ZM17.3042 11.0299V10.5121H19.0118L19.2573 11.0299H17.3042Z" fill="#1C120B"/>
</svg>
