<svg width="16" height="16" viewBox="0 0 16 16" fill="none" xmlns="http://www.w3.org/2000/svg">
<circle cx="8" cy="8" r="8" fill="#797979"/>
<path d="M8.70497 8.00009L10.855 5.85509C10.9491 5.76094 11.002 5.63324 11.002 5.50009C11.002 5.36694 10.9491 5.23924 10.855 5.14509C10.7608 5.05094 10.6331 4.99805 10.5 4.99805C10.3668 4.99805 10.2391 5.05094 10.145 5.14509L7.99997 7.29509L5.85497 5.14509C5.76082 5.05094 5.63312 4.99805 5.49997 4.99805C5.36682 4.99805 5.23912 5.05094 5.14497 5.14509C5.05082 5.23924 4.99792 5.36694 4.99792 5.50009C4.99792 5.63324 5.05082 5.76094 5.14497 5.85509L7.29497 8.00009L5.14497 10.1451C5.09811 10.1916 5.06091 10.2469 5.03552 10.3078C5.01014 10.3687 4.99707 10.4341 4.99707 10.5001C4.99707 10.5661 5.01014 10.6315 5.03552 10.6924C5.06091 10.7533 5.09811 10.8086 5.14497 10.8551C5.19145 10.902 5.24675 10.9392 5.30768 10.9645C5.36861 10.9899 5.43396 11.003 5.49997 11.003C5.56598 11.003 5.63133 10.9899 5.69226 10.9645C5.75319 10.9392 5.80849 10.902 5.85497 10.8551L7.99997 8.70509L10.145 10.8551C10.1915 10.902 10.2468 10.9392 10.3077 10.9645C10.3686 10.9899 10.434 11.003 10.5 11.003C10.566 11.003 10.6313 10.9899 10.6923 10.9645C10.7532 10.9392 10.8085 10.902 10.855 10.8551C10.9018 10.8086 10.939 10.7533 10.9644 10.6924C10.9898 10.6315 11.0029 10.5661 11.0029 10.5001C11.0029 10.4341 10.9898 10.3687 10.9644 10.3078C10.939 10.2469 10.9018 10.1916 10.855 10.1451L8.70497 8.00009Z" fill="white"/>
</svg>
