<svg width="14" height="14" viewBox="0 0 14 14" fill="none" xmlns="http://www.w3.org/2000/svg">
<path d="M13.3682 11.9178L8.44699 6.98652L13.3415 2.08223C13.7407 1.68207 13.7407 1.0334 13.3415 0.633453C12.9422 0.23351 12.295 0.23351 11.8956 0.633453L7.00109 5.53774L2.10675 0.633453C1.70739 0.23351 1.06022 0.23351 0.660849 0.633453C0.261481 1.03362 0.261481 1.68229 0.660849 2.08223L5.55518 6.98652L0.63351 11.9178C0.234142 12.3179 0.234142 12.9664 0.63351 13.3665C0.833194 13.5666 1.09477 13.6666 1.35657 13.6666C1.61837 13.6666 1.87995 13.5666 2.07963 13.3665L7.00109 8.4353L11.9223 13.3665C12.122 13.5666 12.3836 13.6666 12.6454 13.6666C12.9072 13.6666 13.1688 13.5666 13.3684 13.3665C13.7674 12.9666 13.7674 12.3179 13.3682 11.9178Z" fill="#1C120B"/>
</svg>
