<svg width="56" height="56" viewBox="0 0 56 56" fill="none" xmlns="http://www.w3.org/2000/svg">
<path d="M34.766 4.66675H21.2327C19.646 4.66675 17.406 5.60009 16.286 6.72009L6.71936 16.2868C5.59936 17.4068 4.66602 19.6468 4.66602 21.2334V34.7667C4.66602 36.3534 5.59936 38.5934 6.71936 39.7134L16.286 49.2801C17.406 50.4001 19.646 51.3334 21.2327 51.3334H34.766C36.3527 51.3334 38.5927 50.4001 39.7127 49.2801L49.2793 39.7134C50.3993 38.5934 51.3327 36.3534 51.3327 34.7667V21.2334C51.3327 19.6468 50.3993 17.4068 49.2793 16.2868L39.7127 6.72009C38.5927 5.60009 36.3527 4.66675 34.766 4.66675Z" stroke="#E94A44" stroke-width="2.5" stroke-linecap="round" stroke-linejoin="round"/>
<path d="M11.5273 44.5199L44.5207 11.5266" stroke="#E94A44" stroke-width="2.5" stroke-linecap="round" stroke-linejoin="round"/>
</svg>
