<svg width="24" height="24" viewBox="0 0 24 24" fill="none" xmlns="http://www.w3.org/2000/svg">
<path d="M1 5H14.8519V17.2222H7.51852" stroke="#1C120B" stroke-width="1.5" stroke-miterlimit="10" stroke-linecap="round" stroke-linejoin="round"/>
<path d="M18.9265 18.852C19.8265 18.852 20.5561 18.1224 20.5561 17.2224C20.5561 16.3224 19.8265 15.5928 18.9265 15.5928C18.0265 15.5928 17.2969 16.3224 17.2969 17.2224C17.2969 18.1224 18.0265 18.852 18.9265 18.852Z" stroke="#1C120B" stroke-width="1.5" stroke-miterlimit="10" stroke-linecap="round" stroke-linejoin="round"/>
<path d="M5.8894 18.852C6.78941 18.852 7.51902 18.1224 7.51902 17.2224C7.51902 16.3224 6.78941 15.5928 5.8894 15.5928C4.98938 15.5928 4.25977 16.3224 4.25977 17.2224C4.25977 18.1224 4.98938 18.852 5.8894 18.852Z" stroke="#1C120B" stroke-width="1.5" stroke-miterlimit="10" stroke-linecap="round" stroke-linejoin="round"/>
<path d="M14.8516 17.2222V8.25928H19.7405L22.9997 12.3334V17.2222H20.5553" stroke="#1C120B" stroke-width="1.5" stroke-miterlimit="10" stroke-linecap="round" stroke-linejoin="round"/>
<path d="M2.62891 8.25928H9.96224" stroke="#1C120B" stroke-width="1.5" stroke-miterlimit="10" stroke-linecap="round" stroke-linejoin="round"/>
<path d="M1 11.5186H8.33333" stroke="#1C120B" stroke-width="1.5" stroke-miterlimit="10" stroke-linecap="round" stroke-linejoin="round"/>
</svg>
