<svg width="20" height="20" viewBox="0 0 20 20" fill="none" xmlns="http://www.w3.org/2000/svg">
<g clip-path="url(#clip0_851_24444)">
<path d="M9.99998 0C4.47698 0 0 4.47721 0 9.99998C0 15.5227 4.47698 20 9.99998 20C15.5225 20 20 15.5227 20 9.99998C20 4.47721 15.5226 0 9.99998 0ZM9.99998 17.4622C5.88539 17.4622 2.53776 14.1148 2.53776 9.99998C2.53776 5.88515 5.88539 2.53781 9.99998 2.53781C14.1146 2.53781 17.4622 5.88539 17.4622 10C17.4622 14.1147 14.1146 17.4622 9.99998 17.4622Z" fill="#F05228"/>
<path d="M2.59739 4.39182L15.6079 17.4023L17.4024 15.6079L4.39184 2.59737L2.59739 4.39182Z" fill="#F05228"/>
</g>
<defs>
<clipPath id="clip0_851_24444">
<rect width="20" height="20" fill="white"/>
</clipPath>
</defs>
</svg>
