<svg width="20" height="18" viewBox="0 0 20 18" fill="none" xmlns="http://www.w3.org/2000/svg">
<g clip-path="url(#clip0_851_32621)">
<path d="M17.468 4.05547L16.176 1.65334C15.7654 0.916595 15.081 0.371742 14.2714 0.137115C13.4618 -0.0975124 12.5924 -0.00296505 11.852 0.400222L5.2 4.00342H3.2C2.35131 4.00342 1.53737 4.34087 0.937258 4.94152C0.337142 5.54217 0 6.35682 0 7.20627L0 14.813C0 15.6625 0.337142 16.4771 0.937258 17.0778C1.53737 17.6784 2.35131 18.0159 3.2 18.0159H16.8C17.6487 18.0159 18.4626 17.6784 19.0627 17.0778C19.6629 16.4771 20 15.6625 20 14.813V7.20627C20.0043 6.46977 19.7548 5.75431 19.2936 5.1804C18.8324 4.60649 18.1876 4.20921 17.468 4.05547ZM12.8 2.14577C12.9741 2.05037 13.1695 2.00078 13.368 2.00164C13.5832 2.00177 13.7944 2.05982 13.9795 2.1697C14.1646 2.27958 14.3167 2.43725 14.42 2.6262L15.156 4.00342H9.408L12.8 2.14577ZM18 14.813C18 15.1316 17.8736 15.4371 17.6485 15.6623C17.4235 15.8876 17.1183 16.0141 16.8 16.0141H3.2C2.88174 16.0141 2.57652 15.8876 2.35147 15.6623C2.12643 15.4371 2 15.1316 2 14.813V7.20627C2 6.88773 2.12643 6.58223 2.35147 6.35699C2.57652 6.13174 2.88174 6.0052 3.2 6.0052H16.8C17.1183 6.0052 17.4235 6.13174 17.6485 6.35699C17.8736 6.58223 18 6.88773 18 7.20627V14.813Z" fill="#1C120B"/>
<path d="M15 7.99121H5C4.44772 7.99121 4 8.43932 4 8.9921C4 9.54488 4.44772 9.99299 5 9.99299H15C15.5523 9.99299 16 9.54488 16 8.9921C16 8.43932 15.5523 7.99121 15 7.99121Z" fill="#F7D247"/>
</g>
<defs>
<clipPath id="clip0_851_32621">
<rect width="20" height="18" fill="white"/>
</clipPath>
</defs>
</svg>
