<svg width="24" height="24" viewBox="0 0 24 24" fill="none" xmlns="http://www.w3.org/2000/svg">
<g clip-path="url(#clip0_851_32584)">
<path d="M21.2753 2H13.0305C12.8383 2 12.654 2.07633 12.518 2.21227L2.21224 12.5183C1.92925 12.8012 1.92925 13.2601 2.21224 13.543L10.457 21.7877C10.5985 21.9292 10.784 22 10.9695 22C11.1549 22 11.3404 21.9293 11.4819 21.7877L21.7878 11.4817C21.9237 11.3459 22 11.1616 22 10.9694V2.72463C22 2.32444 21.6756 2 21.2753 2ZM20.5507 10.6693L10.9694 20.2506L3.74933 13.0306L13.3307 3.44926H20.5508V10.6693H20.5507Z" fill="#1C120B"/>
<path d="M17.1518 9.02915C17.7346 9.02915 18.2826 8.8022 18.6949 8.39003C19.5456 7.53921 19.5455 6.15488 18.6947 5.30407C18.2825 4.89199 17.7345 4.66504 17.1517 4.66504C16.5689 4.66504 16.0209 4.89199 15.6087 5.30416C14.758 6.15498 14.758 7.53931 15.6087 8.39012C16.0209 8.8022 16.5689 9.02915 17.1518 9.02915ZM16.6337 6.32879C16.772 6.19044 16.9561 6.1142 17.1517 6.1142C17.3475 6.1142 17.5316 6.19044 17.6699 6.32879C17.9557 6.61459 17.9557 7.07951 17.6701 7.36521C17.5316 7.50366 17.3476 7.57989 17.1518 7.57989C16.9561 7.57989 16.7719 7.50366 16.6337 7.3653C16.348 7.07951 16.348 6.61459 16.6337 6.32879Z" fill="#1C120B"/>
</g>
<defs>
<clipPath id="clip0_851_32584">
<rect width="20" height="20" fill="white" transform="translate(2 2)"/>
</clipPath>
</defs>
</svg>
