<svg width="24" height="24" viewBox="0 0 24 24" fill="none" xmlns="http://www.w3.org/2000/svg">
<path d="M11.9998 13.9968C9.46537 13.9968 7.40137 11.9328 7.40137 9.39845C7.40137 6.86405 9.46537 4.80005 11.9998 4.80005C14.5342 4.80005 16.5982 6.86405 16.5982 9.39845C16.5982 11.9328 14.5342 13.9968 11.9998 13.9968ZM11.9998 6.11045C10.1902 6.11045 8.71657 7.58405 8.71657 9.39365C8.71657 11.2032 10.1902 12.6768 11.9998 12.6768C13.8094 12.6768 15.283 11.2032 15.283 9.39365C15.283 7.58405 13.8094 6.11045 11.9998 6.11045Z" fill="#1C120B"/>
<path d="M18.5711 19.2528H17.2559C17.2559 16.3536 14.8991 13.9968 11.9999 13.9968C9.10071 13.9968 6.74391 16.3536 6.74391 19.2528H5.42871C5.42871 15.6288 8.37591 12.6816 11.9999 12.6816C15.6239 12.6816 18.5711 15.6288 18.5711 19.2528Z" fill="#1C120B"/>
</svg>
