<svg width="24" height="24" viewBox="0 0 24 24" fill="none" xmlns="http://www.w3.org/2000/svg">
<path d="M15.5959 3.58792C15.5363 3.40413 15.4059 3.25162 15.2339 3.1639C15.0616 3.07608 14.8617 3.06044 14.6779 3.12018L11.63 4.11063C11.2473 4.23497 11.0378 4.64597 11.1622 5.02861L11.3146 5.4976L3.56169 11.1925L0.503415 12.1861C0.319625 12.2458 0.167115 12.3761 0.0793972 12.5482C-0.00832059 12.7204 -0.0240573 12.9204 0.035684 13.1042L1.89388 18.8221C1.99394 19.1299 2.27953 19.3256 2.58659 19.3256C2.66129 19.3256 2.73716 19.3141 2.81196 19.2898L5.86974 18.2961L7.4408 18.3044C7.75631 19.7941 9.0813 20.9155 10.6635 20.9155C12.2337 20.9155 13.55 19.8109 13.8784 18.3383L15.4897 18.3468L15.642 18.8158C15.7016 18.9996 15.8319 19.1521 16.0041 19.2399C16.1075 19.2925 16.2209 19.3192 16.3349 19.3192C16.4106 19.3192 16.4867 19.3074 16.5599 19.2836L19.6079 18.2932C19.9906 18.1689 20.2001 17.7579 20.0758 17.3753L15.5959 3.58792ZM3.05442 17.6788L1.64666 13.3466L3.43055 12.767L4.83811 17.0992L3.05442 17.6788ZM10.6634 19.4584C9.89485 19.4584 9.23605 18.9837 8.96221 18.3125L12.358 18.3303C12.0799 18.9923 11.4253 19.4584 10.6634 19.4584ZM6.28628 16.8412L5.52004 14.4829L4.75379 12.1246L11.7886 6.95733L13.946 13.5968L15.0151 16.8872L6.28628 16.8412ZM16.8025 17.6727L16.713 17.3975C16.7129 17.397 16.7128 17.3964 16.7127 17.3958L14.7878 11.4719L12.7731 5.27117L14.4353 4.73097L18.4647 17.1324L16.8025 17.6727Z" fill="#1C120B"/>
<path d="M18.0501 7.12938C18.1562 7.18339 18.2691 7.20893 18.3804 7.20893C18.6456 7.20893 18.9014 7.06361 19.0301 6.81105L20.3377 4.24557C20.5205 3.88712 20.378 3.44834 20.0196 3.26562C19.6611 3.08299 19.2223 3.2253 19.0396 3.58385L17.732 6.14933C17.5492 6.50787 17.6917 6.94666 18.0501 7.12938Z" fill="#1C120B"/>
<path d="M23.5257 14.0574L20.9598 12.7504C20.6013 12.5678 20.1626 12.7104 19.98 13.0689C19.7972 13.4274 19.9399 13.8661 20.2984 14.0488L22.8642 15.3558C22.9702 15.4097 23.0831 15.4352 23.1943 15.4352C23.4595 15.4352 23.7154 15.2898 23.8441 15.0373C24.0268 14.6788 23.8842 14.2401 23.5257 14.0574Z" fill="#1C120B"/>
<path d="M19.8405 9.83094C19.9406 10.1388 20.2262 10.3345 20.5333 10.3345C20.608 10.3345 20.6838 10.323 20.7586 10.2987L23.4968 9.40886C23.8793 9.28452 24.0889 8.87352 23.9644 8.49079C23.8401 8.10805 23.4291 7.89901 23.0464 8.02306L20.3082 8.91286C19.9256 9.0373 19.7162 9.4483 19.8405 9.83094Z" fill="#1C120B"/>
</svg>
