<svg width="18" height="18" viewBox="0 0 18 18" fill="none" xmlns="http://www.w3.org/2000/svg">
<path d="M4.67773 6.75C5.84271 6.75 6.78711 5.8056 6.78711 4.64062C6.78711 3.47565 5.84271 2.53125 4.67773 2.53125C3.51276 2.53125 2.56836 3.47565 2.56836 4.64062C2.56836 5.8056 3.51276 6.75 4.67773 6.75Z" fill="#1C120B"/>
<path d="M13.3223 6.75C14.4872 6.75 15.4316 5.8056 15.4316 4.64062C15.4316 3.47565 14.4872 2.53125 13.3223 2.53125C12.1573 2.53125 11.2129 3.47565 11.2129 4.64062C11.2129 5.8056 12.1573 6.75 13.3223 6.75Z" fill="#1C120B"/>
<path d="M13.3223 15.4688C14.4872 15.4688 15.4316 14.5244 15.4316 13.3594C15.4316 12.1944 14.4872 11.25 13.3223 11.25C12.1573 11.25 11.2129 12.1944 11.2129 13.3594C11.2129 14.5244 12.1573 15.4688 13.3223 15.4688Z" fill="#1C120B"/>
<path d="M4.67773 15.4688C5.84271 15.4688 6.78711 14.5244 6.78711 13.3594C6.78711 12.1944 5.84271 11.25 4.67773 11.25C3.51276 11.25 2.56836 12.1944 2.56836 13.3594C2.56836 14.5244 3.51276 15.4688 4.67773 15.4688Z" fill="#1C120B"/>
</svg>
