<svg width="30" height="30" viewBox="0 0 30 30" fill="none" xmlns="http://www.w3.org/2000/svg">
<path d="M6.25 15C6.25 10.1675 10.1675 6.25 15 6.25M20.6249 9.375L14.9999 15M27.5 15C27.5 21.9035 21.9035 27.5 15 27.5C8.09644 27.5 2.5 21.9035 2.5 15C2.5 8.09644 8.09644 2.5 15 2.5C21.9035 2.5 27.5 8.09644 27.5 15ZM16.25 15C16.25 15.6904 15.6904 16.25 15 16.25C14.3096 16.25 13.75 15.6904 13.75 15C13.75 14.3096 14.3096 13.75 15 13.75C15.6904 13.75 16.25 14.3096 16.25 15Z" stroke="#1C120B" stroke-width="2" stroke-linecap="round" stroke-linejoin="round"/>
</svg>
