<svg width="20" height="20" viewBox="0 0 20 20" fill="none" xmlns="http://www.w3.org/2000/svg">
<path d="M11.6667 0.833008H5C4.33696 0.833008 3.70107 1.0964 3.23223 1.56524C2.76339 2.03408 2.5 2.66997 2.5 3.33301V16.6663C2.5 17.3294 2.76339 17.9653 3.23223 18.4341C3.70107 18.903 4.33696 19.1663 5 19.1663H15C15.663 19.1663 16.2989 18.903 16.7678 18.4341C17.2366 17.9653 17.5 17.3294 17.5 16.6663V6.66634L11.6667 0.833008Z" stroke="white" stroke-linecap="round" stroke-linejoin="round"/>
<path d="M11.6667 4.16634C11.6667 4.82938 11.9301 5.46527 12.3989 5.93411C12.8678 6.40295 13.5036 6.66634 14.1667 6.66634H17.5L11.6667 0.833008V4.16634Z" stroke="white" stroke-linecap="round" stroke-linejoin="round"/>
<path d="M6.66669 10.833H10" stroke="white" stroke-linecap="round" stroke-linejoin="round"/>
<path d="M6.66669 15H13.3334" stroke="white" stroke-linecap="round" stroke-linejoin="round"/>
</svg>
