<svg width="110" height="100" viewBox="0 0 110 100" fill="none" xmlns="http://www.w3.org/2000/svg">
<path d="M0 36.1224V9.35082C0 4.22709 4.21052 0 9.31419 0H59.3301C64.4338 0 68.6443 4.22709 68.6443 9.35082V36.1224C68.6443 41.2461 64.4338 45.4732 59.3301 45.4732H51.8022V39.1966H59.3301C60.9888 39.1966 62.3923 37.7876 62.3923 36.1224V9.35082C62.3923 7.68561 60.9888 6.27658 59.3301 6.27658H9.31419C7.5279 6.14849 6.1244 7.55752 6.1244 9.35082V36.1224C6.1244 37.7876 7.52791 39.1966 9.1866 39.1966H38.4051L51.6746 55.0802V64.6872L35.5981 45.4732H9.31419C4.21052 45.4732 0 41.3742 0 36.1224Z" fill="#E94A44"/>
<path d="M82.169 54.0552C82.169 57.0014 84.5933 59.4351 87.5279 59.4351C90.4625 59.4351 92.8867 57.0014 92.8867 54.0552C92.8867 51.1091 90.4625 48.6753 87.5279 48.6753C84.5933 48.6753 82.169 51.1091 82.169 54.0552Z" fill="#1C120B"/>
<path d="M25.1355 59.4351C28.0701 59.4351 30.4944 57.0014 30.4944 54.0552C30.4944 51.1091 28.0701 48.6753 25.1355 48.6753C22.2009 48.6753 19.7767 51.1091 19.7767 54.0552C19.7767 57.1295 22.2009 59.4351 25.1355 59.4351Z" fill="#1C120B"/>
<path d="M81.0207 45.4733H100.159C105.263 45.4733 109.474 41.2462 109.474 36.1224C109.474 33.1763 108.07 30.4863 105.901 28.8211L87.0175 13.9623C85.3588 12.6813 83.3174 11.7847 81.1483 11.7847C76.0447 11.7847 71.8341 16.0118 71.8341 21.1355V36.1224C71.7065 41.3743 75.9171 45.4733 81.0207 45.4733ZM77.9585 21.2636C77.9585 19.4703 79.362 18.1893 81.0207 18.1893C81.7863 18.1893 82.4242 18.4455 83.1898 19.086L102.073 33.9448C102.839 34.4572 103.222 35.3539 103.222 36.3786C103.222 38.0438 101.818 39.4529 100.159 39.4529H81.0207C79.2344 39.4529 77.9585 38.0438 77.9585 36.3786V21.2636Z" fill="#1C120B"/>
<path d="M105.674 88.3344H109.255V73.8076H105.674V79.3835H101.947V73.8076H98.3657V88.3344H101.947V82.6117H105.674V88.3344Z" fill="#1C120B"/>
<path d="M30.3283 80.851C31.3514 80.2641 32.0822 79.1636 32.0822 77.8429C32.0822 75.3485 29.9629 73.7344 26.9666 73.7344C24.1896 73.7344 21.9972 75.2751 21.4857 78.3565H24.9935C25.2127 77.5495 25.7243 76.7424 26.8936 76.7424C27.8436 76.7424 28.5013 77.256 28.5013 78.063C28.5013 78.9435 27.9167 79.457 26.8936 79.457H24.9935V82.3184H26.8936C28.1359 82.3184 28.6475 82.9787 28.6475 83.8591C28.6475 84.6661 28.0628 85.3264 26.8936 85.3264C25.7243 85.3264 25.2127 84.5927 24.9935 83.7857H21.4857C21.9972 86.9405 24.1896 88.4078 26.9666 88.4078C30.1091 88.4078 32.3015 86.647 32.3015 83.9324C32.2284 82.5385 31.4245 81.4379 30.3283 80.851Z" fill="#1C120B"/>
<path d="M9.50047 73.8076H0.14624V88.3344H3.72716V77.0358H9.50047V73.8076Z" fill="#1C120B"/>
<path d="M88.2805 81.7313V73.8076H84.7727V88.3344H87.8421L92.5192 80.4107V88.3344H96.027V73.8076H92.9577L88.2805 81.7313Z" fill="#1C120B"/>
<path d="M43.9211 85.1796H37.6362V82.6117H42.971V79.4569H37.6362V77.0358H43.9211V73.8076H34.0553V88.3344H43.9211V85.1796Z" fill="#1C120B"/>
<path d="M13.4468 73.8076L8.185 88.3344H11.9121L12.6429 86.2067H17.1007L17.7585 88.3344H21.4855L16.2238 73.8076H13.4468ZM13.5929 83.1986L14.9083 79.3102L16.1507 83.1986H13.5929Z" fill="#1C120B"/>
<path d="M78.8532 80.5574L83.1649 73.8076H79.0724L75.1261 80.7041V73.8076H71.6183V88.3344H75.1261V80.7775L79.4378 88.3344H83.6034L78.8532 80.5574Z" fill="#1C120B"/>
<path d="M65.2603 79.0167H62.9949V73.8076H59.4139V88.3344H65.2603C68.1104 88.3344 70.0836 86.3534 70.0836 83.6388C70.0836 80.9976 68.1104 79.0167 65.2603 79.0167ZM64.968 85.1796H62.9218V82.2449H64.968C65.845 82.2449 66.5027 82.9052 66.5027 83.7122C66.5027 84.5193 65.845 85.1796 64.968 85.1796Z" fill="#1C120B"/>
<path d="M47.5751 80.7775C47.5751 84.4459 46.6982 85.1062 45.4558 85.1062H45.0173V88.261H46.4059C49.5483 88.261 51.0099 86.7936 51.0099 80.7041V76.889H53.4946V88.1876H57.0755V73.8076H47.5751V80.7775Z" fill="#1C120B"/>
<path d="M0.14624 97.9451H0.803959V93.7632H3.14252V93.1763H0.14624V97.9451Z" fill="#1C120B"/>
<path d="M9.71966 93.1035C9.42734 93.1035 9.13502 93.1769 8.98886 93.2503C8.76962 93.3236 8.69654 93.4704 8.4773 93.6905V93.1035H7.81958V100H8.4773V97.2855C8.69654 97.5789 8.8427 97.6523 9.06194 97.7257C9.28118 97.799 9.50042 97.8724 9.79274 97.8724C11.0351 97.8724 11.5467 97.0654 11.5467 95.4513C11.5467 93.9106 10.962 93.1035 9.71966 93.1035ZM9.64658 97.3588C8.8427 97.3588 8.4773 96.8453 8.4773 95.5246C8.4773 94.2774 8.8427 93.6905 9.64658 93.6905C10.5235 93.6905 10.8159 94.204 10.8159 95.5246C10.8159 96.8453 10.4505 97.3588 9.64658 97.3588Z" fill="#1C120B"/>
<path d="M72.1299 93.7632H73.7377V97.9451H74.3954V93.7632H76.0032V93.1763H72.1299V93.7632Z" fill="#1C120B"/>
<path d="M108.597 93.1763L106.112 96.8446V93.1763H105.454V97.9451H106.112L108.597 94.2768V97.9451H109.254V93.1763H108.597Z" fill="#1C120B"/>
<path d="M44.0671 95.4507C44.5787 95.3039 44.7979 94.9371 44.7979 94.4235C44.7979 93.6898 44.2133 93.1763 43.4094 93.1763H41.217V97.9451H43.4825C44.3594 97.9451 44.871 97.4316 44.871 96.6245C44.9441 96.0376 44.5787 95.6708 44.0671 95.4507ZM41.9478 93.7632H43.3363C43.8479 93.7632 44.1402 93.9833 44.1402 94.4969C44.1402 94.9371 43.8479 95.2306 43.3363 95.2306H41.9478V93.7632ZM43.4094 97.3582H41.9478V95.8175H43.4094C43.9209 95.8175 44.2863 96.111 44.2863 96.6245C44.2133 96.9914 43.9209 97.3582 43.4094 97.3582Z" fill="#1C120B"/>
<path d="M51.5944 93.1035C51.0828 93.1035 50.5713 93.3236 50.2059 93.6171C49.7674 94.0573 49.6212 94.5709 49.6212 95.5246C49.6212 96.4784 49.7674 96.992 50.2059 97.4322C50.5713 97.799 51.0097 97.9458 51.5944 97.9458C52.1059 97.9458 52.6175 97.7257 52.9829 97.4322C53.4214 96.992 53.5675 96.4784 53.5675 95.5246C53.5675 94.6442 53.4214 94.0573 52.9829 93.6905C52.6175 93.3236 52.1059 93.1035 51.5944 93.1035ZM52.4713 96.992C52.2521 97.2121 51.9598 97.3588 51.5944 97.3588C51.229 97.3588 50.9367 97.2121 50.7174 96.992C50.4251 96.6985 50.352 96.2583 50.352 95.5246C50.352 94.791 50.4251 94.3508 50.7174 94.0573C50.9367 93.8372 51.229 93.6905 51.5944 93.6905C51.9598 93.6905 52.2521 93.8372 52.4713 94.0573C52.7637 94.3508 52.8367 94.7176 52.8367 95.5246C52.8367 96.3317 52.6906 96.7719 52.4713 96.992Z" fill="#1C120B"/>
<path d="M82.1418 93.1035C81.7033 93.1035 81.3379 93.1769 81.0456 93.3236C80.8263 93.4704 80.6802 93.5437 80.4609 93.8372L80.8994 94.2774C81.0456 94.0573 81.1917 93.9839 81.3379 93.9106C81.5571 93.8372 81.7764 93.7638 82.0687 93.7638C82.9457 93.7638 83.3111 94.0573 83.3111 94.791V95.2312H81.8495C80.8263 95.2312 80.2417 95.7447 80.2417 96.6252C80.2417 97.5056 80.8263 98.0191 81.9225 98.0191C82.2879 98.0191 82.5072 98.0191 82.7264 97.8724C82.9457 97.799 83.0187 97.7257 83.238 97.5056V97.9458H83.9688V94.7176C84.0419 93.6171 83.3841 93.1035 82.1418 93.1035ZM83.3841 96.2583C83.3841 97.0654 83.0187 97.4322 82.1418 97.4322C81.3379 97.4322 80.9725 97.2121 80.9725 96.6252C80.9725 96.0382 81.3379 95.8181 82.0687 95.8181H83.3841V96.2583Z" fill="#1C120B"/>
<path d="M60.2179 93.1035C59.0486 93.1035 58.2448 93.9839 58.2448 95.5246C58.2448 97.1387 58.9756 98.0191 60.3641 98.0191C60.7295 98.0191 61.0218 97.9458 61.3141 97.8724C61.6064 97.7257 61.7526 97.6523 62.118 97.2855L61.6795 96.8453C61.3872 97.0654 61.3141 97.2121 61.0949 97.2855C60.9487 97.3588 60.7295 97.4322 60.5102 97.4322C59.8525 97.4322 59.414 97.2121 59.1948 96.6252C59.1217 96.405 59.0486 96.1849 59.0486 95.7447H62.2641V95.4513C62.118 93.9839 61.3872 93.1035 60.2179 93.1035ZM58.9025 95.2312C58.9025 94.791 58.9755 94.6442 59.0486 94.4241C59.2679 93.9839 59.6333 93.6905 60.1448 93.6905C60.7295 93.6905 61.1679 93.9839 61.3141 94.5709C61.3872 94.7176 61.3872 94.8643 61.3872 95.2312H58.9025Z" fill="#1C120B"/>
<path d="M34.3475 93.1035C33.8359 93.1035 33.3244 93.3236 32.959 93.6171C32.5205 94.0573 32.3743 94.5709 32.3743 95.5246C32.3743 96.4784 32.5205 96.992 32.959 97.4322C33.3244 97.799 33.7628 97.9458 34.3475 97.9458C34.859 97.9458 35.3706 97.7257 35.736 97.4322C36.1745 96.992 36.3206 96.4784 36.3206 95.5246C36.3206 94.6442 36.1745 94.0573 35.736 93.6905C35.3706 93.3236 34.9321 93.1035 34.3475 93.1035ZM35.2244 96.992C35.0052 97.2121 34.7129 97.3588 34.3475 97.3588C33.9821 97.3588 33.6898 97.2121 33.4705 96.992C33.1782 96.6985 33.1051 96.2583 33.1051 95.5246C33.1051 94.791 33.1782 94.3508 33.4705 94.0573C33.6898 93.8372 33.9821 93.6905 34.3475 93.6905C34.7129 93.6905 35.0052 93.8372 35.2244 94.0573C35.5168 94.3508 35.5898 94.7176 35.5898 95.5246C35.5898 96.3317 35.5168 96.7719 35.2244 96.992Z" fill="#1C120B"/>
<path d="M26.8934 95.4504C27.405 95.3037 27.6242 94.8635 27.6242 94.3499C27.6242 93.5429 26.8934 93.0293 25.9434 93.0293C25.2857 93.0293 24.701 93.176 24.1895 93.5429L24.5549 93.9831C24.9203 93.6896 25.3587 93.6162 25.7972 93.6162C26.4549 93.6162 26.8934 93.8363 26.8934 94.3499C26.8934 94.8635 26.528 95.0836 26.0165 95.0836H25.2857V95.6705H26.0165C26.6011 95.6705 26.9665 95.964 26.9665 96.4776C26.9665 96.9911 26.3088 97.2846 25.7972 97.2846C25.2126 97.2846 24.8472 97.1379 24.4087 96.771L23.9702 97.2112C24.5549 97.7248 25.1395 97.8715 25.8703 97.8715C26.8203 97.8715 27.6973 97.358 27.6973 96.4776C27.6973 96.0374 27.405 95.5972 26.8934 95.4504Z" fill="#1C120B"/>
<path d="M99.1694 93.7638C99.3887 93.7638 99.5349 93.8372 99.681 93.8372C99.9003 93.9106 99.9733 93.9839 100.193 94.2774L100.631 93.8372C100.339 93.5437 100.193 93.397 99.9002 93.2503C99.681 93.1769 99.3887 93.1035 99.0964 93.1035C97.7809 93.1035 96.9771 94.0573 96.9771 95.5246C96.9771 97.0654 97.7809 97.9458 99.0964 97.9458C99.3887 97.9458 99.681 97.8724 99.9002 97.799C100.193 97.6523 100.339 97.5789 100.631 97.2121L100.193 96.7719C99.9733 97.0654 99.8272 97.1387 99.6079 97.2121C99.4618 97.2855 99.3156 97.2855 99.0964 97.2855C98.1463 97.2855 97.7078 96.6985 97.7078 95.4513C97.7078 94.3508 98.2194 93.7638 99.1694 93.7638Z" fill="#1C120B"/>
<path d="M92.8115 93.1763H92.0076L89.8883 95.4507V93.1763H89.2306V97.9451H89.8883V95.4507L92.1538 97.9451H93.0307L90.6922 95.3773L92.8115 93.1763Z" fill="#1C120B"/>
<path d="M17.8315 96.9914L16.516 93.1763H15.7852L17.4661 97.8718L17.1007 98.8256C16.9545 99.2658 16.8083 99.4125 16.2968 99.4125H16.0775V99.9994H16.3699C17.0276 99.9994 17.393 99.706 17.6122 99.119L19.8046 93.1763H19.0738L17.8315 96.9914Z" fill="#1C120B"/>
</svg>
