<svg width="48" height="48" viewBox="0 0 48 48" fill="none" xmlns="http://www.w3.org/2000/svg">
<circle cx="24" cy="24" r="24" fill="#F7D247"/>
<path d="M35.1307 12H25.2368C25.0062 12 24.785 12.0916 24.6219 12.2547L12.2549 24.6219C11.9153 24.9615 11.9153 25.5121 12.2549 25.8516L22.1486 35.7453C22.3185 35.915 22.5411 36 22.7636 36C22.9861 36 23.2087 35.9151 23.3785 35.7453L35.7456 23.3781C35.9086 23.2151 36.0002 22.9939 36.0002 22.7633V12.8696C36.0002 12.3893 35.611 12 35.1307 12ZM34.2611 22.4031L22.7635 33.9008L14.0994 25.2367L25.5971 13.7391H34.2612V22.4031H34.2611Z" fill="#1C120B"/>
<path d="M30.1836 20.4349C30.8829 20.4349 31.5405 20.1626 32.0353 19.668C33.0561 18.647 33.056 16.9858 32.035 15.9648C31.5404 15.4703 30.8828 15.198 30.1834 15.198C29.4841 15.198 28.8265 15.4703 28.3319 15.9649C27.311 16.9859 27.311 18.6471 28.3319 19.6681C28.8265 20.1626 29.4841 20.4349 30.1836 20.4349ZM29.5618 17.1945C29.7278 17.0285 29.9487 16.937 30.1834 16.937C30.4183 16.937 30.6393 17.0285 30.8052 17.1945C31.1482 17.5375 31.1482 18.0954 30.8055 18.4382C30.6393 18.6043 30.4185 18.6958 30.1836 18.6958C29.9487 18.6958 29.7277 18.6043 29.5618 18.4383C29.2189 18.0954 29.2189 17.5375 29.5618 17.1945Z" fill="#1C120B"/>
</svg>
