<svg width="48" height="48" viewBox="0 0 48 48" fill="none" xmlns="http://www.w3.org/2000/svg">
<circle cx="24" cy="24" r="24" fill="#F7D247"/>
<path d="M9.60001 15.6H27.7333V31.6H18.1333" stroke="#1C120B" stroke-width="2" stroke-miterlimit="10" stroke-linecap="round" stroke-linejoin="round"/>
<path d="M33.0667 33.7333C34.2449 33.7333 35.2 32.7782 35.2 31.6C35.2 30.4218 34.2449 29.4667 33.0667 29.4667C31.8885 29.4667 30.9333 30.4218 30.9333 31.6C30.9333 32.7782 31.8885 33.7333 33.0667 33.7333Z" stroke="#1C120B" stroke-width="2" stroke-miterlimit="10" stroke-linecap="round" stroke-linejoin="round"/>
<path d="M16 33.7333C17.1782 33.7333 18.1333 32.7782 18.1333 31.6C18.1333 30.4218 17.1782 29.4667 16 29.4667C14.8218 29.4667 13.8667 30.4218 13.8667 31.6C13.8667 32.7782 14.8218 33.7333 16 33.7333Z" stroke="#1C120B" stroke-width="2" stroke-miterlimit="10" stroke-linecap="round" stroke-linejoin="round"/>
<path d="M27.7333 31.6V19.8666H34.1333L38.4 25.2V31.6H35.2" stroke="#1C120B" stroke-width="2" stroke-miterlimit="10" stroke-linecap="round" stroke-linejoin="round"/>
<path d="M11.7333 19.8666H21.3333" stroke="#1C120B" stroke-width="2" stroke-miterlimit="10" stroke-linecap="round" stroke-linejoin="round"/>
<path d="M9.60001 24.1334H19.2" stroke="#1C120B" stroke-width="2" stroke-miterlimit="10" stroke-linecap="round" stroke-linejoin="round"/>
</svg>
