<svg width="48" height="48" viewBox="0 0 48 48" fill="none" xmlns="http://www.w3.org/2000/svg">
<circle cx="24" cy="24" r="24" fill="#F7D247"/>
<path d="M33.4669 22.2787L30.2794 20.43C30.1568 20.3595 30.0113 20.3407 29.8748 20.3775C29.7383 20.4144 29.6221 20.504 29.5516 20.6265C29.4811 20.7491 29.4623 20.8946 29.4991 21.0311C29.536 21.1677 29.6256 21.2839 29.7481 21.3543L32.1547 22.7409L24 27.4371L15.8559 22.7409L18.2625 21.3437C18.3851 21.2733 18.4747 21.157 18.5115 21.0205C18.5484 20.884 18.5296 20.7385 18.4591 20.6159C18.3886 20.4933 18.2724 20.4038 18.1359 20.3669C17.9994 20.33 17.8539 20.3489 17.7312 20.4193L14.5437 22.2681C14.4619 22.3154 14.3941 22.3836 14.3475 22.4658C14.3008 22.5479 14.2768 22.6411 14.2781 22.7356V33.3606C14.2778 33.4542 14.3021 33.5463 14.3488 33.6274C14.3954 33.7085 14.4627 33.776 14.5437 33.8228L23.745 39.1353C23.8258 39.1819 23.9174 39.2065 24.0106 39.2065C24.1039 39.2065 24.1955 39.1819 24.2762 39.1353L33.4775 33.8228C33.5586 33.776 33.6259 33.7085 33.6725 33.6274C33.7192 33.5463 33.7435 33.4542 33.7431 33.3606V22.7356C33.7415 22.6418 33.7151 22.5502 33.6666 22.4699C33.6181 22.3897 33.5492 22.3237 33.4669 22.2787ZM15.33 23.6653L23.4687 28.3562V37.7593L15.33 33.0578V23.6653ZM24.5312 37.7593V28.3562L32.67 23.6653V33.0578L24.5312 37.7593Z" fill="#1C120B" stroke="#1C120B" stroke-width="0.7"/>
<path d="M24.0002 26.4278C24.0717 26.4275 24.1425 26.4128 24.2082 26.3845C24.274 26.3562 24.3333 26.3149 24.3827 26.2631C24.6536 25.9816 30.9808 19.3091 30.9808 15.5744C30.9808 13.723 30.2453 11.9474 28.9362 10.6383C27.6271 9.32921 25.8516 8.59375 24.0002 8.59375C22.1488 8.59375 20.3733 9.32921 19.0641 10.6383C17.755 11.9474 17.0195 13.723 17.0195 15.5744C17.0195 19.2931 23.3467 25.9816 23.6177 26.2631C23.6671 26.3149 23.7263 26.3562 23.7921 26.3845C23.8578 26.4128 23.9286 26.4275 24.0002 26.4278ZM24.0002 9.65625C25.5689 9.65906 27.0725 10.2835 28.1818 11.3927C29.291 12.502 29.9155 14.0056 29.9183 15.5744C29.9183 18.1403 25.9552 23.0119 24.0002 25.1369C22.0452 23.0119 18.082 18.1562 18.082 15.5744C18.0848 14.0056 18.7093 12.502 19.8185 11.3927C20.9278 10.2835 22.4314 9.65906 24.0002 9.65625Z" fill="#1C120B" stroke="#1C120B" stroke-width="0.7"/>
<path d="M27.3576 15.2131C27.3566 14.5493 27.1587 13.9006 26.7892 13.3492C26.4196 12.7978 25.8949 12.3682 25.2813 12.115C24.6677 11.8616 23.9927 11.7959 23.3418 11.9261C22.6909 12.0562 22.0931 12.3764 21.6241 12.8462C21.1551 13.3159 20.8358 13.9142 20.7067 14.5653C20.5776 15.2165 20.6444 15.8913 20.8987 16.5045C21.1529 17.1177 21.5833 17.6417 22.1353 18.0104C22.6874 18.3791 23.3363 18.5759 24.0001 18.5759C24.891 18.5745 25.745 18.2196 26.3745 17.5891C27.004 16.9586 27.3576 16.104 27.3576 15.2131ZM21.7051 15.2131C21.7061 14.7594 21.8416 14.3162 22.0944 13.9395C22.3472 13.5628 22.7061 13.2695 23.1255 13.0966C23.5449 12.9237 24.0062 12.879 24.451 12.9681C24.8959 13.0573 25.3043 13.2763 25.6247 13.5974C25.9452 13.9186 26.1633 14.3276 26.2513 14.7726C26.3395 15.2177 26.2937 15.6788 26.1199 16.0979C25.946 16.5169 25.6519 16.875 25.2745 17.127C24.8972 17.3789 24.4538 17.5134 24.0001 17.5134C23.3909 17.512 22.8072 17.269 22.3769 16.8378C21.9467 16.4065 21.7051 15.8223 21.7051 15.2131Z" fill="#1C120B" stroke="#1C120B" stroke-width="0.7"/>
</svg>
