<svg width="48" height="48" viewBox="0 0 48 48" fill="none" xmlns="http://www.w3.org/2000/svg">
<circle cx="24" cy="24" r="24" fill="#F7D247"/>
<path d="M32.7499 12.3333H15.2499C14.4767 12.3342 13.7353 12.6418 13.1885 13.1886C12.6418 13.7354 12.3342 14.4767 12.3333 15.25V32.75C12.3342 33.5232 12.6418 34.2645 13.1885 34.8114C13.7353 35.3581 14.4767 35.6657 15.2499 35.6666H32.7499C33.5232 35.6657 34.2645 35.3581 34.8113 34.8114C35.3581 34.2645 35.6657 33.5232 35.6666 32.75V15.25C35.6657 14.4767 35.3581 13.7354 34.8113 13.1886C34.2645 12.6418 33.5232 12.3342 32.7499 12.3333ZM34.4999 15.25V23.4166H24.5833V13.5H32.7499C33.214 13.5 33.6592 13.6844 33.9873 14.0125C34.3155 14.3407 34.4999 14.7859 34.4999 15.25ZM15.2499 13.5H23.4166V23.4166H13.4999V15.25C13.4999 14.7859 13.6843 14.3407 14.0125 14.0125C14.3407 13.6844 14.7858 13.5 15.2499 13.5ZM13.4999 32.75V24.5833H23.4166V34.5H15.2499C14.7858 34.5 14.3407 34.3156 14.0125 33.9874C13.6843 33.6592 13.4999 33.2141 13.4999 32.75ZM32.7499 34.5H24.5833V24.5833H34.4999V32.75C34.4999 33.2141 34.3155 33.6592 33.9873 33.9874C33.6592 34.3156 33.214 34.5 32.7499 34.5Z" fill="#1C120B" stroke="#1C120B" stroke-width="0.5"/>
<path d="M16.4166 19.0416H17.8749V20.5C17.8749 20.6547 17.9364 20.8031 18.0458 20.9125C18.1552 21.0218 18.3036 21.0833 18.4583 21.0833C18.613 21.0833 18.7614 21.0218 18.8707 20.9125C18.9801 20.8031 19.0416 20.6547 19.0416 20.5V19.0416H20.4999C20.6546 19.0416 20.803 18.9802 20.9124 18.8708C21.0218 18.7614 21.0833 18.613 21.0833 18.4583C21.0833 18.3036 21.0218 18.1552 20.9124 18.0458C20.803 17.9365 20.6546 17.875 20.4999 17.875H19.0416V16.4166C19.0416 16.2619 18.9801 16.1135 18.8707 16.0042C18.7614 15.8948 18.613 15.8333 18.4583 15.8333C18.3036 15.8333 18.1552 15.8948 18.0458 16.0042C17.9364 16.1135 17.8749 16.2619 17.8749 16.4166V17.875H16.4166C16.2619 17.875 16.1135 17.9365 16.0041 18.0458C15.8947 18.1552 15.8333 18.3036 15.8333 18.4583C15.8333 18.613 15.8947 18.7614 16.0041 18.8708C16.1135 18.9802 16.2619 19.0416 16.4166 19.0416Z" fill="#1C120B" stroke="#1C120B" stroke-width="0.5"/>
<path d="M19.2832 29.8334L20.3145 28.802C20.3702 28.7482 20.4147 28.6838 20.4452 28.6127C20.4758 28.5415 20.4919 28.465 20.4926 28.3875C20.4933 28.31 20.4785 28.2332 20.4492 28.1615C20.4198 28.0898 20.3765 28.0247 20.3218 27.97C20.267 27.9152 20.2018 27.8718 20.1302 27.8426C20.0585 27.8132 19.9817 27.7985 19.9042 27.7991C19.8267 27.7998 19.7502 27.8159 19.679 27.8465C19.6079 27.877 19.5435 27.9215 19.4897 27.9772L18.4584 29.0085L17.427 27.9772C17.3732 27.9215 17.3088 27.877 17.2377 27.8465C17.1665 27.8159 17.09 27.7998 17.0125 27.7991C16.935 27.7985 16.8582 27.8132 16.7865 27.8426C16.7148 27.8718 16.6497 27.9152 16.595 27.97C16.5402 28.0247 16.4969 28.0898 16.4676 28.1615C16.4382 28.2332 16.4235 28.31 16.4241 28.3875C16.4248 28.465 16.4409 28.5415 16.4715 28.6127C16.502 28.6838 16.5465 28.7482 16.6022 28.802L17.6335 29.8334L16.6022 30.8647C16.5465 30.9185 16.502 30.9829 16.4715 31.054C16.4409 31.1252 16.4248 31.2017 16.4241 31.2792C16.4235 31.3567 16.4382 31.4334 16.4676 31.5051C16.4969 31.5768 16.5402 31.642 16.595 31.6968C16.6497 31.7515 16.7148 31.7948 16.7865 31.8242C16.8582 31.8535 16.935 31.8683 17.0125 31.8676C17.09 31.8669 17.1665 31.8508 17.2377 31.8202C17.3088 31.7897 17.3732 31.7452 17.427 31.6895L18.4584 30.6582L19.4897 31.6895C19.5435 31.7452 19.6079 31.7897 19.679 31.8202C19.7502 31.8508 19.8267 31.8669 19.9042 31.8676C19.9817 31.8683 20.0585 31.8535 20.1302 31.8242C20.2018 31.7948 20.267 31.7515 20.3218 31.6968C20.3765 31.642 20.4198 31.5768 20.4492 31.5051C20.4785 31.4334 20.4933 31.3567 20.4926 31.2792C20.4919 31.2017 20.4758 31.1252 20.4452 31.054C20.4147 30.9829 20.3702 30.9185 20.3145 30.8647L19.2832 29.8334Z" fill="#1C120B" stroke="#1C120B" stroke-width="0.5"/>
<path d="M27.5001 19.0417H31.5834C31.7381 19.0417 31.8865 18.9802 31.9959 18.8708C32.1053 18.7614 32.1667 18.613 32.1667 18.4583C32.1667 18.3036 32.1053 18.1552 31.9959 18.0459C31.8865 17.9365 31.7381 17.875 31.5834 17.875H27.5001C27.3454 17.875 27.197 17.9365 27.0876 18.0459C26.9782 18.1552 26.9167 18.3036 26.9167 18.4583C26.9167 18.613 26.9782 18.7614 27.0876 18.8708C27.197 18.9802 27.3454 19.0417 27.5001 19.0417Z" fill="#1C120B" stroke="#1C120B" stroke-width="0.5"/>
<path d="M31.5834 28.0833H27.5001C27.3454 28.0833 27.197 28.1448 27.0876 28.2542C26.9782 28.3635 26.9167 28.5119 26.9167 28.6666C26.9167 28.8213 26.9782 28.9697 27.0876 29.0791C27.197 29.1885 27.3454 29.25 27.5001 29.25H31.5834C31.7381 29.25 31.8865 29.1885 31.9959 29.0791C32.1053 28.9697 32.1667 28.8213 32.1667 28.6666C32.1667 28.5119 32.1053 28.3635 31.9959 28.2542C31.8865 28.1448 31.7381 28.0833 31.5834 28.0833Z" fill="#1C120B" stroke="#1C120B" stroke-width="0.5"/>
<path d="M31.5834 30.4167H27.5001C27.3454 30.4167 27.197 30.4782 27.0876 30.5875C26.9782 30.6969 26.9167 30.8453 26.9167 31C26.9167 31.1547 26.9782 31.3031 27.0876 31.4125C27.197 31.5219 27.3454 31.5834 27.5001 31.5834H31.5834C31.7381 31.5834 31.8865 31.5219 31.9959 31.4125C32.1053 31.3031 32.1667 31.1547 32.1667 31C32.1667 30.8453 32.1053 30.6969 31.9959 30.5875C31.8865 30.4782 31.7381 30.4167 31.5834 30.4167Z" fill="#1C120B" stroke="#1C120B" stroke-width="0.5"/>
</svg>
