<svg width="48" height="48" viewBox="0 0 48 48" fill="none" xmlns="http://www.w3.org/2000/svg">
<circle cx="24" cy="24" r="24" fill="#F7D247"/>
<path d="M35 17.9999C34.9995 17.897 34.9791 17.7951 34.94 17.6999C34.9413 17.6766 34.9413 17.6533 34.94 17.6299L32.94 13.6299C32.8653 13.4423 32.7355 13.2816 32.5677 13.1692C32.3999 13.0567 32.202 12.9977 32 12.9999H15C14.7716 12.9933 14.5478 13.0651 14.3658 13.2033C14.1839 13.3416 14.0548 13.5381 14 13.7599L13 17.7599C12.9951 17.7931 12.9951 17.8268 13 17.8599C12.9954 17.9065 12.9954 17.9534 13 17.9999V33.9999C13 34.2652 13.1054 34.5195 13.2929 34.707C13.4805 34.8946 13.7348 34.9999 14 34.9999H34C34.2653 34.9999 34.5196 34.8946 34.7071 34.707C34.8947 34.5195 35 34.2652 35 33.9999V17.9999ZM15.78 14.9999H31.38L32.38 16.9999H15.28L15.78 14.9999ZM33 32.9999H15V18.9999H33V32.9999Z" fill="#1C120B"/>
<path d="M23.4501 30.83C23.6134 30.9375 23.8046 30.9948 24.0001 30.9948C24.1956 30.9948 24.3868 30.9375 24.5501 30.83L27.5501 28.83C27.6727 28.7642 27.7802 28.6736 27.8658 28.5639C27.9514 28.4542 28.0132 28.3278 28.0471 28.1929C28.0811 28.058 28.0865 27.9174 28.0631 27.7803C28.0397 27.6431 27.9878 27.5124 27.911 27.3964C27.8341 27.2804 27.7339 27.1817 27.6167 27.1067C27.4996 27.0316 27.368 26.9819 27.2305 26.9606C27.093 26.9393 26.9526 26.9469 26.8182 26.9829C26.6838 27.019 26.5585 27.0827 26.4501 27.17L25.0001 28.17V22C25.0001 21.7348 24.8947 21.4804 24.7072 21.2929C24.5197 21.1054 24.2653 21 24.0001 21C23.7349 21 23.4805 21.1054 23.293 21.2929C23.1054 21.4804 23.0001 21.7348 23.0001 22V28.13L21.5501 27.13C21.3305 27.0122 21.0749 26.9807 20.8333 27.0415C20.5916 27.1023 20.3814 27.2511 20.2438 27.4588C20.1062 27.6665 20.051 27.9181 20.0892 28.1644C20.1273 28.4106 20.2561 28.6337 20.4501 28.79L23.4501 30.83Z" fill="#1C120B"/>
</svg>
