<svg width="48" height="48" viewBox="0 0 48 48" fill="none" xmlns="http://www.w3.org/2000/svg">
<circle cx="24" cy="24" r="24" fill="#F7D247"/>
<path d="M32.9375 31.8164H31.7918L26.2628 13.5717C26.2359 13.4861 26.1815 13.4117 26.1081 13.3603C26.0346 13.3089 25.9461 13.2832 25.8565 13.2873H22.1271C22.0375 13.2832 21.9491 13.3089 21.8756 13.3603C21.8021 13.4117 21.7477 13.4861 21.7209 13.5717L16.2081 31.8164H15.0828C14.975 31.8164 14.8717 31.8592 14.7955 31.9353C14.7193 32.0115 14.6765 32.1149 14.6765 32.2226V34.3107C14.6765 34.4185 14.7193 34.5218 14.7955 34.598C14.8717 34.6742 14.975 34.717 15.0828 34.717H32.9375C33.0452 34.717 33.1485 34.6742 33.2247 34.598C33.3009 34.5218 33.3437 34.4185 33.3437 34.3107V32.2226C33.3437 32.1149 33.3009 32.0115 33.2247 31.9353C33.1485 31.8592 33.0452 31.8164 32.9375 31.8164ZM23.9065 31.8164L29.3015 26.4051L30.9265 31.8164H23.9065ZM22.4278 14.0998H25.5721L25.8403 14.9854L20.559 20.2667L22.4278 14.0998ZM18.8731 25.8201L26.7421 17.9551L28.3996 23.4273L20.0106 31.8164H17.0571L18.8731 25.8201Z" fill="#1C120B" stroke="#1C120B"/>
</svg>
