<svg width="48" height="48" viewBox="0 0 48 48" fill="none" xmlns="http://www.w3.org/2000/svg">
<circle cx="24" cy="24" r="24" fill="#F7D247"/>
<path d="M33.0299 17.9599L34.1965 16.7932L32.5049 15.1716L31.3382 16.3382C29.0203 14.4453 26.0636 13.5154 23.0794 13.741C20.0953 13.9665 17.3119 15.3302 15.3048 17.55C13.2977 19.7698 12.2204 22.6761 12.2957 25.6678C12.3709 28.6595 13.593 31.5079 15.7091 33.624C17.8252 35.7402 20.6736 36.9622 23.6653 37.0374C26.6571 37.1127 29.5633 36.0354 31.7831 34.0283C34.003 32.0212 35.3666 29.2378 35.5922 26.2537C35.8177 23.2695 34.8878 20.3128 32.9949 17.9949L33.0299 17.9599ZM23.9999 34.6666C22.1539 34.6666 20.3494 34.1192 18.8146 33.0936C17.2797 32.0681 16.0834 30.6104 15.377 28.9049C14.6706 27.1995 14.4858 25.3229 14.8459 23.5124C15.206 21.7019 16.0949 20.0389 17.4002 18.7336C18.7055 17.4283 20.3686 16.5394 22.179 16.1792C23.9895 15.8191 25.8662 16.0039 27.5716 16.7104C29.277 17.4168 30.7347 18.6131 31.7603 20.1479C32.7858 21.6828 33.3332 23.4873 33.3332 25.3332C33.3332 27.8086 32.3499 30.1826 30.5995 31.9329C28.8492 33.6832 26.4752 34.6666 23.9999 34.6666Z" fill="#1C120B"/>
<path d="M29.8334 10.1667H18.1667V12.5001H29.8334V10.1667Z" fill="#1C120B"/>
<path d="M25.1666 25.3333V18.3333H22.8333V27.6666H30.9999V25.3333H25.1666Z" fill="#1C120B"/>
</svg>
